<?xml version="1.0" standalone="no"?>
<!DOCTYPE svg PUBLIC "-//W3C//DTD SVG 20010904//EN"
 "http://www.w3.org/TR/2001/REC-SVG-20010904/DTD/svg10.dtd">
<svg version="1.0" xmlns="http://www.w3.org/2000/svg"
 width="160.000000pt" height="160.000000pt" viewBox="0 0 160.000000 160.000000"
 preserveAspectRatio="xMidYMid meet">
<metadata>
Created by potrace 1.11, written by Peter Selinger 2001-2013
</metadata>
<g transform="translate(0.000000,160.000000) scale(0.100000,-0.100000)"
fill="#000000" stroke="none">
<path d="M833 1588 c-6 -8 -9 -64 -8 -146 1 -74 -1 -152 -5 -173 -7 -35 -5
-39 9 -32 9 4 42 8 73 7 73 0 76 7 73 161 -3 116 -12 166 -34 180 -24 14 -97
17 -108 3z"/>
<path d="M81 1151 c-17 -16 -31 -34 -31 -40 0 -27 64 -67 170 -106 19 -7 65
-27 101 -44 77 -36 89 -38 82 -11 -3 10 5 35 17 55 l23 37 -31 27 c-47 43 -91
67 -166 90 -94 29 -127 27 -165 -8z"/>
<path d="M1475 1153 c-11 -2 -58 -11 -105 -19 -143 -26 -160 -32 -160 -56 0
-32 39 -107 62 -119 25 -13 110 -5 177 17 69 22 93 51 99 119 2 30 1 55 -4 56
-5 0 -18 2 -29 3 -11 2 -29 1 -40 -1z"/>
<path d="M863 1119 c-50 -14 -194 -161 -231 -234 -38 -78 -78 -190 -85 -239
-7 -53 16 -124 58 -179 41 -53 63 -62 156 -60 99 1 132 16 219 102 103 101
124 152 126 301 1 146 -23 228 -81 278 -48 42 -95 50 -162 31z m125 -184 c24
-29 26 -55 8 -134 -17 -73 -113 -190 -183 -223 -32 -15 -72 -2 -83 28 -27 69
17 207 94 300 49 58 53 61 95 59 35 -1 49 -8 69 -30z"/>
<path d="M1165 573 c-38 -7 -64 -25 -58 -41 4 -8 48 -34 99 -58 52 -24 118
-59 149 -78 49 -32 56 -34 70 -20 18 18 19 33 4 71 -32 86 -157 145 -264 126z"/>
<path d="M399 380 c-155 -82 -250 -291 -161 -356 9 -6 23 -9 32 -7 27 7 84 65
128 130 40 59 97 113 119 113 18 0 43 36 43 64 0 67 -85 96 -161 56z"/>
<path d="M909 227 c-5 -47 60 -197 93 -216 33 -19 76 -7 84 23 10 40 -4 65
-72 131 -63 61 -103 85 -105 62z"/>
</g>
</svg>
